<?xml version="1.0" encoding="UTF-8"?>
<svg xmlns="http://www.w3.org/2000/svg" height="1000" width="760"><path d="M78.75 120.5l601.25 0c56.25 0 80 23.75 80 78.75l0 601.25c0 52.5 -23.75 78.75 -80 78.75l-601.25 0c-51.25 0 -78.75 -26.25 -78.75 -78.75l0 -601.25c0 -55 27.5 -78.75 78.75 -78.75zm431.25 513.75l-81.25 0c-56.25 -3.75 -96.25 -41.25 -96.25 -95l0 -52.5l177.5 0c32.5 0 58.75 -26.25 58.75 -58.75 0 -33.75 -26.25 -60 -58.75 -60l-177.5 0l0 -73.75c0 -32.5 -27.5 -60 -57.5 -60 -33.75 0 -58.75 27.5 -58.75 60l0 245c0 57.5 20 113.75 61.25 150 38.75 38.75 90 61.25 147.5 63.75l85 0c32.5 0 58.75 -26.25 58.75 -60 0 -32.5 -26.25 -58.75 -58.75 -58.75z" fill="#000000"/></svg>
